<svg data-v-4f740188="" width="48" height="48" viewBox="0 0 64 64" aria-labelledby="box" role="presentation" xmlns="http://www.w3.org/2000/svg" name="startup-icon"><title data-v-4f740188="" id="box" lang="en">box icon</title><g data-v-4f740188="" fill="#2276C5"><g data-v-4f740188=""><path d="M63.12.84c-1.44-1.44-9-.8-14,.21C42.91,2.33,34.09,5.26,27.4,12a67,67,0,0,0-5.94,6.81,19,19,0,0,0-8.86-.35C5.43,19.68.92,27.87.73,28.22l-.55,1,.85.81a24.63,24.63,0,0,0,9.57,5.38A6.09,6.09,0,0,0,10.28,43,20.51,20.51,0,0,0,5,46.88,17.62,17.62,0,0,0,.32,55.59c-.65,3.17-.3,5.8,1,7C2.27,63.64,4,64,5.84,64a16.7,16.7,0,0,0,11.5-4.7A20.64,20.64,0,0,0,21.27,54a6,6,0,0,0,7.42-.25,23.43,23.43,0,0,0,5.4,9.46l.79.81,1-.52c.35-.18,8.56-4.47,9.83-11.67a18.91,18.91,0,0,0-.38-8.95,65.27,65.27,0,0,0,6.9-6C58.92,30.11,61.79,21.23,63,15,64,10,64.58,2.3,63.12.84Zm-50,20.57a17,17,0,0,1,6.44,0,39,39,0,0,0-5.36,11.36h0c-4.1.22-8.33-2.7-10.15-4.16C5.4,26.58,8.74,22.19,13.13,21.41Zm2.06,35.73C10.9,61.43,4.33,61.35,3.43,60.49S2.83,53.32,7.11,49a16.86,16.86,0,0,1,5.37-3.73l6.45,6.45A16.78,16.78,0,0,1,15.19,57.14ZM27.1,51.07l-.12.12a3,3,0,0,1-4.31,0l-9.62-9.64a3.06,3.06,0,0,1,0-4.32l.11-.11a3,3,0,0,1,2.16-.89,3,3,0,0,1,2.15.89l9.63,9.63A3.08,3.08,0,0,1,27.1,51.07Zm15.61.19c-.78,4.38-5.19,7.62-7.21,8.89-1.46-1.78-4.45-6-4.14-10.12h.06a37.8,37.8,0,0,0,11.26-5.31A17,17,0,0,1,42.71,51.26Zm7.37-16.61c-6.42,6.42-13.29,10.82-19.36,12.4a6.09,6.09,0,0,0-1.47-2.45L19.63,35a6.09,6.09,0,0,0-2.45-1.47c1.63-6.14,6-13,12.38-19.38C40.15,3.5,57.34,2.66,60.84,3.14,61.37,6.65,60.73,24,50.08,34.65Z"></path><path d="M33.5,38.34a7.6,7.6,0,0,1-5.39-2.24h0a7.6,7.6,0,1,1,5.39,2.24Zm-3.23-4.4a4.56,4.56,0,0,0,6.46,0,4.57,4.57,0,1,0-6.46-6.47,4.57,4.57,0,0,0,0,6.47Z"></path><path d="M46.93,23.36a6.08,6.08,0,0,1-4.31-1.79h0a6.08,6.08,0,1,1,4.31,1.79Zm-2.15-3.95a3.05,3.05,0,1,0,0-4.31,3,3,0,0,0,0,4.31Z"></path></g></g></svg>